<svg xmlns="http://www.w3.org/2000/svg" width="40" height="40" viewBox="0 0 40 40" fill="none">
  <rect x="5" y="5" width="30" height="30" rx="5" fill="url(#paint0_linear)" />
  <path d="M20 8C18.8954 8 18 8.89543 18 10V30C18 31.1046 18.8954 32 20 32V32C21.1046 32 22 31.1046 22 30V10C22 8.89543 21.1046 8 20 8V8Z" fill="white" />
  <path d="M20 8C14.4772 8 10 12.4772 10 18V22C10 27.5228 14.4772 32 20 32V32C25.5228 32 30 27.5228 30 22V18C30 12.4772 25.5228 8 20 8V8Z" stroke="white" stroke-width="2" />
  <defs>
    <linearGradient id="paint0_linear" x1="5" y1="5" x2="35" y2="35" gradientUnits="userSpaceOnUse">
      <stop offset="0" stop-color="#4F46E5" />
      <stop offset="1" stop-color="#1D4ED8" />
    </linearGradient>
  </defs>
</svg>