<svg xmlns="http://www.w3.org/2000/svg" width="180" height="40" viewBox="0 0 180 40" fill="none">
  <path d="M10 5C7.23858 5 5 7.23858 5 10V30C5 32.7614 7.23858 35 10 35H30C32.7614 35 35 32.7614 35 30V10C35 7.23858 32.7614 5 30 5H10Z" fill="url(#paint0_linear)" />
  <path d="M20 8C18.8954 8 18 8.89543 18 10V30C18 31.1046 18.8954 32 20 32V32C21.1046 32 22 31.1046 22 30V10C22 8.89543 21.1046 8 20 8V8Z" fill="white" />
  <path d="M20 8C14.4772 8 10 12.4772 10 18V22C10 27.5228 14.4772 32 20 32V32C25.5228 32 30 27.5228 30 22V18C30 12.4772 25.5228 8 20 8V8Z" stroke="white" stroke-width="2" />
  <path d="M44.0781 28V12.1406H50.1875C51.6562 12.1406 52.8854 12.4062 53.875 12.9375C54.8646 13.4583 55.6042 14.2083 56.0938 15.1875C56.5938 16.1562 56.8438 17.2812 56.8438 18.5625V21.5625C56.8438 22.8438 56.599 23.974 56.1094 24.9531C55.6198 25.9219 54.875 26.6719 53.875 27.2031C52.8854 27.7344 51.6615 28 50.2031 28H44.0781ZM48.3906 15.5312V24.625H50.0625C51.0208 24.625 51.7344 24.3385 52.2031 23.7656C52.6719 23.1927 52.9167 22.349 52.9375 21.2344V18.8125C52.9375 17.6562 52.7031 16.7917 52.2344 16.2188C51.7656 15.6458 51.0625 15.3542 50.125 15.3438H48.3906Z" fill="white" />
  <path d="M69.2969 28L69.1875 26.5938C68.4792 27.5938 67.3698 28.0938 65.8594 28.0938C64.7031 28.0938 63.7865 27.7396 63.1094 27.0312C62.4427 26.3229 62.1094 25.3125 62.1094 24V16.5H66.0781V23.0156C66.0781 23.5781 66.2031 24.0052 66.4531 24.2969C66.7031 24.5781 67.0885 24.7188 67.6094 24.7188C68.3594 24.7188 68.9323 24.4323 69.3281 23.8594V16.5H73.3125V28H69.2969Z" fill="white" />
  <path d="M81.8594 24.7188C82.3906 24.7188 82.8073 24.5677 83.1094 24.2656C83.4115 23.9635 83.5625 23.5677 83.5625 23.0781H87.2812C87.2812 24.6677 86.7396 25.9427 85.6562 26.9031C84.5729 27.8635 83.1979 28.3438 81.5312 28.3438C79.5417 28.3438 77.9688 27.7135 76.8125 26.4531C75.6562 25.1927 75.0781 23.4635 75.0781 21.2656V21.0781C75.0781 19.8177 75.3073 18.6979 75.7656 17.7188C76.224 16.7396 76.8906 15.9844 77.7656 15.4531C78.6406 14.9219 79.6667 14.6562 80.8438 14.6562C82.6042 14.6562 84.0208 15.1458 85.0938 16.125C86.1667 17.1042 86.7031 18.4375 86.7031 20.125H82.9844C82.9844 19.5729 82.8281 19.1302 82.5156 18.7969C82.2031 18.4635 81.7656 18.2969 81.2031 18.2969C80.1094 18.2969 79.4635 18.9427 79.2656 20.2344C79.1927 20.6719 79.1562 21.2344 79.1562 21.9219C79.1562 23.0573 79.2917 23.8542 79.5625 24.3125C79.8333 24.7708 80.2969 25 81.0469 25C82.2552 25 82.8594 24.5729 82.8594 23.7188V23.7031L81.8594 24.7188Z" fill="white" />
  <path d="M94.9688 19.4219L94.7656 19.625C94.7865 20.4792 94.9635 21.1719 95.2969 21.7031C95.6302 22.224 96.1302 22.4844 96.7969 22.4844C97.526 22.4844 98.1198 22.1979 98.5781 21.625L100.25 24.0156C99.3021 25.3906 97.8073 26.0781 95.7656 26.0781C94.2865 26.0781 93.0938 25.6667 92.1875 24.8438C91.2917 24.0208 90.8438 22.849 90.8438 21.3281V20.9531C90.8438 19.8906 91.0417 18.9323 91.4375 18.0781C91.8333 17.2135 92.4115 16.5365 93.1719 16.0469C93.9427 15.5573 94.8594 15.3125 95.9219 15.3125C97.0677 15.3125 98.0208 15.5729 98.7812 16.0938C99.5417 16.6042 100.109 17.3177 100.484 18.2344C100.87 19.1406 101.062 20.1927 101.062 21.3906V21.7969C101.062 21.9219 101.042 22.0573 101.001 22.2031H94.6094C94.7344 21.4844 94.8594 20.526 94.9844 19.4219H94.9688Z" fill="white" />
  <path d="M108.062 26.0781C106.635 26.0781 105.458 25.6667 104.531 24.8438C103.615 24.0104 103.156 22.7865 103.156 21.1719V20.8906C103.156 19.7969 103.349 18.8385 103.734 18.0156C104.12 17.1823 104.682 16.5573 105.422 16.1406C106.172 15.7239 107.073 15.5156 108.125 15.5156C109.396 15.5156 110.438 15.8958 111.25 16.6562C112.062 17.4167 112.505 18.5 112.578 19.9062L112.594 20.6406H107.047C107.089 21.2031 107.259 21.6302 107.559 21.9219C107.858 22.2135 108.266 22.3594 108.781 22.3594C109.677 22.3594 110.37 22.026 110.859 21.3594L112.406 23.6719C112.021 24.2969 111.453 24.7969 110.703 25.1719C109.964 25.776 109.083 26.0781 108.062 26.0781Z" fill="white" />
  <path d="M119.375 26.0781C117.896 26.0781 116.729 25.6667 115.875 24.8438C115.031 24.0208 114.609 22.8125 114.609 21.2188V20.9844C114.609 19.8802 114.807 18.901 115.203 18.0469C115.599 17.1823 116.174 16.5208 116.925 16.0625C117.687 15.5938 118.589 15.3594 119.633 15.3594C120.955 15.3594 122.01 15.7552 122.797 16.5469C123.594 17.3281 123.995 18.4531 124 19.9219L124.016 20.7031H118.547C118.6 21.2552 118.781 21.6823 119.091 21.9844C119.401 22.276 119.83 22.4219 120.378 22.4219C121.295 22.4219 122.005 22.0885 122.511 21.4219L124.016 23.7344C123.651 24.349 123.115 24.849 122.413 25.2344C121.709 25.7969 120.635 26.0781 119.375 26.0781Z" fill="white" />
  <path d="M130.703 26.0781C129.099 26.0781 127.781 25.6302 126.75 24.7344C125.729 23.8385 125.219 22.5938 125.219 21V20.7188C125.219 19.6354 125.427 18.6875 125.844 17.875C126.271 17.0625 126.891 16.4375 127.703 16C128.516 15.5521 129.453 15.3281 130.516 15.3281C131.995 15.3281 133.193 15.7552 134.109 16.6094C135.036 17.4531 135.5 18.6719 135.5 20.2656V21.9375H129.188C129.312 22.4688 129.552 22.875 129.906 23.1562C130.26 23.4271 130.719 23.5625 131.281 23.5625C132.323 23.5625 133.141 23.2292 133.734 22.5625L135.266 24.4062C134.891 24.8646 134.359 25.2344 133.672 25.5156C132.984 25.8906 131.891 26.0781 130.703 26.0781ZM130.5 17.8438C129.5 17.8438 128.953 18.4896 128.859 19.7812H131.984V19.4844C132.005 18.9219 131.88 18.5 131.609 18.2188C131.339 17.9375 130.969 17.8438 130.5 17.8438Z" fill="white" />
  <path d="M142.938 26.0781C141.521 26.0781 140.339 25.724 139.391 25.0156C138.453 24.2969 137.984 23.3438 137.984 22.1562H141.5C141.5 22.625 141.635 22.9844 141.906 23.2344C142.177 23.474 142.568 23.5938 143.078 23.5938C143.505 23.5938 143.844 23.4948 144.094 23.2969C144.354 23.099 144.484 22.8333 144.484 22.5C144.484 22.0104 144.26 21.6458 143.812 21.4062C143.365 21.1667 142.682 20.9115 141.766 20.6406C140.693 20.349 139.833 20.0417 139.188 19.7188C138.552 19.3854 138.031 18.9427 137.625 18.3906C137.229 17.8281 137.031 17.1302 137.031 16.2969C137.031 15.0573 137.469 14.0729 138.344 13.3438C139.219 12.6042 140.354 12.2344 141.75 12.2344C143.271 12.2344 144.479 12.6042 145.375 13.3438C146.281 14.0729 146.734 15.0573 146.734 16.2969H143.25C143.25 15.8906 143.135 15.5729 142.906 15.3438C142.677 15.1146 142.354 15 141.938 15C141.583 15 141.292 15.0885 141.062 15.2656C140.833 15.4323 140.719 15.6667 140.719 15.9688C140.719 16.3646 140.922 16.6719 141.328 16.8906C141.744 17.1094 142.396 17.3281 143.281 17.5469C144.385 17.8594 145.266 18.1667 145.922 18.4688C146.578 18.7604 147.109 19.1719 147.516 19.7031C147.932 20.2344 148.141 20.9219 148.141 21.7656C148.141 22.4844 147.938 23.125 147.531 23.6875C147.135 24.25 146.568 24.6927 145.828 25.0156C145.089 25.724 144.115 26.0781 142.938 26.0781Z" fill="white" />
  <path d="M154.891 26.0781C153.37 26.0781 152.15 25.6667 151.234 24.8438C150.328 24.0208 149.875 22.7917 149.875 21.1562V20.9844C149.875 18.8281 150.453 17.2188 151.609 16.1562C152.776 15.0938 154.427 14.5625 156.562 14.5625C157.083 14.5625 157.599 14.599 158.109 14.6719C158.62 14.7448 159.109 14.8698 159.578 15.0469V17.9688C159.047 17.8021 158.573 17.6771 158.156 17.5938C157.74 17.5104 157.354 17.5 157 17.5C156.125 17.5 155.479 17.6719 155.062 18.0156C154.646 18.349 154.438 18.875 154.438 19.5938C154.438 20.3125 154.667 20.8542 155.125 21.2188C155.583 21.5729 156.245 21.75 157.109 21.75C157.828 21.75 158.505 21.6146 159.141 21.3438V24.5312C158.536 24.7292 157.995 24.8698 157.516 24.9531C157.047 25.0365 156.151 26.0781 154.891 26.0781Z" fill="white" />
  <path d="M168.734 22.9219C168.734 22.4219 168.531 22.0365 168.125 21.7656C167.729 21.4844 167.031 21.2188 166.031 20.9688C164.594 20.6354 163.521 20.1719 162.812 19.5781C162.104 18.9844 161.75 18.2031 161.75 17.2344C161.75 16.2031 162.214 15.3854 163.141 14.7812C164.078 14.1771 165.286 13.875 166.766 13.875C168.359 13.875 169.62 14.1927 170.547 14.8281C171.484 15.4531 171.953 16.276 171.953 17.2969H168.281C168.281 16.8281 168.13 16.4583 167.828 16.1875C167.526 15.9062 167.13 15.7656 166.641 15.7656C166.193 15.7656 165.823 15.8906 165.531 16.1406C165.25 16.3802 165.109 16.6771 165.109 17.0312C165.109 17.3958 165.266 17.7031 165.578 17.9531C165.901 18.1927 166.51 18.4271 167.406 18.6562C168.885 19.0104 169.99 19.4896 170.719 20.0938C171.448 20.6979 171.812 21.4583 171.812 22.375C171.812 23.4583 171.349 24.3125 170.422 24.9375C169.495 25.5521 168.245 25.8594 166.672 25.8594C165.078 25.8594 163.776 25.5104 162.766 24.8125C161.766 24.1042 161.266 23.2188 161.266 22.1562H164.641C164.672 22.7292 164.859 23.15 165.203 23.4219C165.547 23.6927 166.026 23.8281 166.641 23.8281C167.161 23.8281 167.562 23.7031 167.844 23.4531C168.135 23.2031 168.281 22.8906 168.281 22.5156L168.734 22.9219Z" fill="white" />
  <defs>
    <linearGradient id="paint0_linear" x1="5" y1="5" x2="35" y2="35" gradientUnits="userSpaceOnUse">
      <stop offset="0" stop-color="#4F46E5" />
      <stop offset="1" stop-color="#1D4ED8" />
    </linearGradient>
  </defs>
</svg>